<svg width="9" height="9" viewBox="0 0 9 9" fill="none" xmlns="http://www.w3.org/2000/svg">
<path d="M0.725364 2.90101C0.628541 2.13602 1.14823 1.08737 1.76009 0.606356C1.94136 0.464061 2.55199 0.628318 2.71037 0.54356C3.08467 0.34311 3.69716 0.0795559 4.06465 0.292689C4.29232 0.424775 4.16426 0.740917 4.39007 0.876716C4.82407 1.1381 5.95531 0.711839 6.39674 0.960236C6.78774 1.18017 7.01695 2.957 7.38816 3.20849C7.5951 3.34862 8.5791 2.85028 8.71026 3.15652C8.96021 3.73962 7.25947 4.70413 7.08284 5.20742C6.94488 5.60028 7.50261 6.00366 7.16946 6.2536C6.66988 6.62852 6.85208 7.19615 6.70112 7.30503C6.22351 7.64933 6.40849 7.85318 6.08338 8.3444C5.72238 8.88976 5.15351 8.88574 4.72323 8.8712C4.30717 8.85728 3.81532 7.67902 3.7448 7.26853C3.67272 6.85 4.116 6.28577 4.05722 5.87343C3.99845 5.46108 3.61271 5.60214 3.39091 5.18639C3.16881 4.77002 3.37761 4.20796 3.12767 3.8748C2.96434 3.65703 1.72947 4.0072 1.52129 3.82778C1.21845 3.56732 0.774548 3.28892 0.725364 2.90101Z" fill="#07191D"/>
<path d="M8.38766 5.58885C8.44829 5.49017 8.58842 5.49667 8.62832 5.60555C8.84455 6.1936 8.75051 7.54478 8.34311 7.82504C8.07337 8.01064 7.29972 7.99487 7.41943 7.66944C7.56761 7.26669 7.72413 7.21627 7.7727 6.99695C7.81074 6.82465 7.61524 6.37982 7.73836 6.26258C7.9716 6.04203 8.14297 5.98666 8.38766 5.58885Z" fill="#07191D"/>
</svg>
