<svg width="10" height="9" viewBox="0 0 10 9" fill="none" xmlns="http://www.w3.org/2000/svg">
<path d="M3.77947 6.79923H2.88364V6.10193L2.45908 5.28552H2.35887V5.6423L1.6804 6.29466H0.940775L0.24231 5.64474V4.9263L0.784569 4.42173V3.62646L0.24231 3.12189V2.31262L1.57224 1.99817L2.65354 2.2581H3.08408L3.75262 1.9367L3.4084 1.60574V0.744385H4.829L5.35377 1.24896H6.55701V1.75353H7.3863L9.19833 2.32791V3.26724H8.50237L7.9776 3.77181H7.08177V3.26724H6.55701V3.41503L7.19045 4.02409L6.4033 4.78095H6.03224V5.13773L5.35377 5.79009H4.9827V6.29466H4.30423L3.77947 6.79923Z" fill="#07191D"/>
<path d="M1.57172 1.24896H2.62125V1.75353H1.57172V1.24896Z" fill="#07191D"/>
<path d="M6.92807 5.79009H6.29462V5.28552H6.71071L7.15863 4.85483L7.52968 5.21162L6.92807 5.79009Z" fill="#07191D"/>
<path d="M7.15863 7.73447L6.71071 7.3038H6.29462V6.79923H6.92807L7.52968 7.37769L7.15863 7.73447Z" fill="#07191D"/>
<path d="M5.50747 7.55609H6.03224V8.06066H5.50747V7.55609Z" fill="#07191D"/>
<path d="M6.03224 6.04237H6.55701V6.54694H6.03224V6.04237Z" fill="#07191D"/>
<path d="M5.99997 7.3038H4.9827V6.54694H5.68511L5.99997 7.3038Z" fill="#07191D"/>
<path d="M5.12775 8.2863L3.93317 7.712V7.05151H4.45794V7.40016L5.36243 7.83499L5.12775 8.2863Z" fill="#07191D"/>
</svg>
