<svg width="5" height="6" viewBox="0 0 5 6" fill="none" xmlns="http://www.w3.org/2000/svg">
<path d="M4.71052 0.977533C4.64008 0.906518 4.55628 0.850153 4.46396 0.811687C4.37163 0.773222 4.2726 0.753418 4.17258 0.753418C4.07256 0.753418 3.97353 0.773222 3.8812 0.811687C3.78887 0.850153 3.70507 0.906518 3.63464 0.977533L2.65726 1.96249L1.67988 0.977533C1.5372 0.834862 1.3437 0.754711 1.14194 0.754711C0.94017 0.754711 0.746668 0.834862 0.603997 0.977533C0.461327 1.1202 0.381176 1.31371 0.381176 1.51547C0.381176 1.71724 0.461327 1.91074 0.603997 2.05341L1.58896 3.03079L0.603997 4.00817C0.532983 4.07861 0.476618 4.16241 0.438152 4.25473C0.399687 4.34706 0.379883 4.44609 0.379883 4.54611C0.379883 4.64613 0.399687 4.74516 0.438152 4.83749C0.476618 4.92982 0.532983 5.01362 0.603997 5.08405C0.674432 5.15507 0.75823 5.21143 0.850558 5.2499C0.942886 5.28836 1.04192 5.30817 1.14194 5.30817C1.24196 5.30817 1.34099 5.28836 1.43331 5.2499C1.52564 5.21143 1.60944 5.15507 1.67988 5.08405L2.65726 4.09909L3.63464 5.08405C3.70507 5.15507 3.78887 5.21143 3.8812 5.2499C3.97353 5.28836 4.07256 5.30817 4.17258 5.30817C4.2726 5.30817 4.37163 5.28836 4.46396 5.2499C4.55628 5.21143 4.64008 5.15507 4.71052 5.08405C4.78153 5.01362 4.8379 4.92982 4.87636 4.83749C4.91483 4.74516 4.93463 4.64613 4.93463 4.54611C4.93463 4.44609 4.91483 4.34706 4.87636 4.25473C4.8379 4.16241 4.78153 4.07861 4.71052 4.00817L3.72556 3.03079L4.71052 2.05341C4.78153 1.98298 4.8379 1.89918 4.87636 1.80685C4.91483 1.71452 4.93463 1.61549 4.93463 1.51547C4.93463 1.41545 4.91483 1.31642 4.87636 1.22409C4.8379 1.13176 4.78153 1.04797 4.71052 0.977533Z" fill="#7B7B7B" fill-opacity="0.3"/>
</svg>
