<svg width="17" height="17" viewBox="0 0 17 17" fill="none" xmlns="http://www.w3.org/2000/svg">
<g clip-path="url(#clip0_0_144)">
<path d="M8.5 0C3.825 0 0 3.825 0 8.5C0 13.175 3.825 17 8.5 17C13.175 17 17 13.175 17 8.5C17 3.825 13.175 0 8.5 0ZM1.00937 8.5C1.00937 7.75625 1.11562 7.0125 1.32812 6.26875H3.6125C3.50625 6.95938 3.45312 7.70312 3.45312 8.5C3.45312 9.24375 3.50625 9.9875 3.6125 10.7312H1.32812C1.16875 10.0406 1.00937 9.29688 1.00937 8.5ZM4.56875 8.5C4.56875 7.75625 4.62187 7.0125 4.72812 6.26875H7.91562V10.6781H4.72812C4.62187 10.0406 4.56875 9.29688 4.56875 8.5ZM9.03125 1.11562C10.3062 1.4875 11.4219 3.08125 12.0063 5.20625H9.03125V1.11562ZM7.96875 1.11562V5.20625H4.99375C5.57812 3.08125 6.64062 1.4875 7.96875 1.11562ZM7.96875 11.7937V15.8844C6.69375 15.5125 5.57812 13.9187 4.99375 11.7937H7.96875ZM9.03125 15.8844V11.7937H12.0063C11.4219 13.9719 10.3062 15.5656 9.03125 15.8844ZM9.03125 10.7312V6.32187H12.2188C12.325 7.0125 12.3781 7.75625 12.3781 8.55313C12.3781 9.29688 12.325 10.0406 12.2188 10.7844H9.03125V10.7312ZM13.2812 6.32187H15.5656C15.7781 7.0125 15.8844 7.75625 15.8844 8.55313C15.8844 9.35 15.7781 10.0406 15.5656 10.7844H13.2812C13.3875 10.0938 13.4406 9.35 13.4406 8.55313C13.4937 7.75625 13.3875 7.0125 13.2812 6.32187ZM15.1937 5.25937H13.1219C12.8031 3.825 12.2188 2.60313 11.5281 1.7C13.1219 2.39062 14.3969 3.66562 15.1937 5.25937ZM5.47187 1.7C4.78125 2.60313 4.19688 3.825 3.87813 5.25937H1.80625C2.55 3.66562 3.87812 2.39062 5.47187 1.7ZM1.80625 11.7937H3.87813C4.19688 13.2281 4.78125 14.45 5.47187 15.3531C3.87812 14.6094 2.55 13.3875 1.80625 11.7937ZM11.5281 15.3531C12.2188 14.45 12.8031 13.2281 13.1219 11.7937H15.1937C14.3969 13.3875 13.1219 14.6094 11.5281 15.3531Z" fill="#091F24"/>
</g>
<defs>
<clipPath id="clip0_0_144">
<rect width="17" height="17" fill="white"/>
</clipPath>
</defs>
</svg>
