<svg width="14" height="18" viewBox="0 0 14 18" fill="none" xmlns="http://www.w3.org/2000/svg">
<path d="M4.9375 17.25H9.0625C10.3384 17.2486 11.5617 16.7412 12.4639 15.8389C13.3662 14.9367 13.8736 13.7134 13.875 12.4375V5.5625C13.8736 4.28656 13.3662 3.06328 12.4639 2.16106C11.5617 1.25883 10.3384 0.751365 9.0625 0.75H4.9375C3.66156 0.751365 2.43828 1.25883 1.53606 2.16106C0.633833 3.06328 0.126365 4.28656 0.125 5.5625C0.125 5.74484 0.197433 5.9197 0.326364 6.04864C0.455295 6.17757 0.630164 6.25 0.8125 6.25C0.994836 6.25 1.1697 6.17757 1.29864 6.04864C1.42757 5.9197 1.5 5.74484 1.5 5.5625C1.501 4.65113 1.86349 3.77737 2.50793 3.13293C3.15237 2.48849 4.02613 2.126 4.9375 2.125H9.0625C9.97387 2.126 10.8476 2.48849 11.4921 3.13293C12.1365 3.77737 12.499 4.65113 12.5 5.5625V12.4375C12.499 13.3489 12.1365 14.2226 11.4921 14.8671C10.8476 15.5115 9.97387 15.874 9.0625 15.875H4.9375C4.02613 15.874 3.15237 15.5115 2.50793 14.8671C1.86349 14.2226 1.501 13.3489 1.5 12.4375C1.5 12.2552 1.42757 12.0803 1.29864 11.9514C1.1697 11.8224 0.994836 11.75 0.8125 11.75C0.630164 11.75 0.455295 11.8224 0.326364 11.9514C0.197433 12.0803 0.125 12.2552 0.125 12.4375C0.126365 13.7134 0.633833 14.9367 1.53606 15.8389C2.43828 16.7412 3.66156 17.2486 4.9375 17.25Z" fill="white"/>
<path d="M0.125 9C0.125 9.18234 0.197433 9.3572 0.326364 9.48614C0.455295 9.61507 0.630164 9.6875 0.8125 9.6875H5.68413L4.79519 10.5764C4.72952 10.6399 4.67715 10.7157 4.64112 10.7996C4.60509 10.8835 4.58612 10.9737 4.58533 11.065C4.58453 11.1563 4.60193 11.2468 4.6365 11.3313C4.67107 11.4158 4.72212 11.4925 4.78667 11.5571C4.85122 11.6216 4.92798 11.6727 5.01247 11.7073C5.09696 11.7418 5.18749 11.7592 5.27878 11.7584C5.37006 11.7576 5.46028 11.7387 5.54415 11.7026C5.62803 11.6666 5.70389 11.6142 5.76731 11.5486L7.82981 9.48606C7.9587 9.35714 8.0311 9.1823 8.0311 9C8.0311 8.8177 7.9587 8.64286 7.82981 8.51394L5.76731 6.45144C5.63765 6.3262 5.46398 6.25691 5.28372 6.25847C5.10346 6.26004 4.93103 6.33234 4.80356 6.45981C4.67609 6.58728 4.60379 6.75971 4.60222 6.93997C4.60066 7.12023 4.66995 7.2939 4.79519 7.42356L5.68413 8.3125H0.8125C0.630164 8.3125 0.455295 8.38493 0.326364 8.51386C0.197433 8.64279 0.125 8.81766 0.125 9Z" fill="white"/>
</svg>
