<svg width="11" height="7" viewBox="0 0 11 7" fill="none" xmlns="http://www.w3.org/2000/svg">
<path d="M5.78049 6.31409H5.18884C5.09649 6.31409 5.01025 6.27041 4.95904 6.19758L4.44937 5.47341H4.00552C3.93223 5.47341 3.86203 5.44582 3.81017 5.39676L3.59526 5.19319H2.52638C2.46661 5.19319 2.40842 5.17479 2.36066 5.14086L1.17728 4.30019C1.11866 4.25856 1.07996 4.19656 1.06961 4.12789L0.773778 2.16625C0.767664 2.12605 0.771548 2.0851 0.785142 2.04654L1.3768 0.365192C1.41442 0.258362 1.51993 0.186279 1.63882 0.186279H6.37215C6.5247 0.186279 6.64834 0.303397 6.64834 0.447904V0.746728H7.25964C7.38637 0.746728 7.49685 0.828418 7.52763 0.944922L7.77117 1.86763H8.03276L9.43106 0.543152C9.48285 0.494097 9.55305 0.466504 9.62634 0.466504H9.92217C10.0747 0.466504 10.1984 0.583622 10.1984 0.728128V1.84903C10.1984 1.88963 10.1884 1.92969 10.1692 1.96608L9.6067 3.03172V3.81067C9.6067 3.88002 9.57757 3.94659 9.52579 3.99564L9.19133 4.31245C9.13502 4.3658 9.12624 4.44987 9.1704 4.51262L9.56031 5.06667C9.63331 5.17043 9.61893 5.3086 9.52579 5.39676L8.93413 5.95728C8.82631 6.05941 8.65139 6.05941 8.54357 5.95728L7.73693 5.19319H6.83873L6.76709 5.32877C6.72034 5.41741 6.62468 5.47341 6.5201 5.47341H6.27541L6.04252 6.13517C6.0049 6.242 5.89939 6.31409 5.78049 6.31409Z" fill="#07191D"/>
</svg>
