<svg width="25" height="25" viewBox="0 0 25 25" xmlns="http://www.w3.org/2000/svg">
<g opacity="0.5">
<path d="M22.7499 21.5428L17.8556 16.6485C17.5221 16.315 16.982 16.315 16.6485 16.6485C16.315 16.9817 16.315 17.5224 16.6485 17.8556L21.5428 22.7499C21.7095 22.9166 21.9278 23 22.1463 23C22.3646 23 22.5831 22.9166 22.7499 22.7499C23.0834 22.4167 23.0834 21.876 22.7499 21.5428Z" fill="#6A7577"/>
<path d="M11.248 2C6.14877 2 2 6.14877 2 11.248C2 16.3474 6.14877 20.4959 11.248 20.4959C16.3474 20.4959 20.4959 16.3474 20.4959 11.248C20.4959 6.14877 16.3474 2 11.248 2ZM11.248 18.7886C7.09008 18.7886 3.70732 15.4059 3.70732 11.248C3.70732 7.09012 7.09008 3.70732 11.248 3.70732C15.4058 3.70732 18.7886 7.09008 18.7886 11.248C18.7886 15.4058 15.4058 18.7886 11.248 18.7886Z" fill="#6A7577"/>
</g>
</svg>
