<svg width="7" height="11" viewBox="0 0 7 11" fill="none" xmlns="http://www.w3.org/2000/svg">
<path d="M6.997 3.352C7.00156 3.19427 6.95593 3.03925 6.86687 2.90989C6.7725 2.73667 6.63248 2.59353 6.46248 2.49649C6.43731 2.48222 5.04495 1.75172 4.5373 1.34629C4.52089 1.33318 2.89511 0.16 2.87578 0.149602C2.52231 -0.0425346 2.17428 -0.049646 1.84128 0.128547C1.54679 0.286157 1.23363 0.448172 0.825749 0.653887C0.638692 0.748204 0.547778 0.908027 0.555548 1.12889C0.565202 1.40252 0.569882 1.68207 0.574413 1.95239C0.576092 2.05357 0.577864 2.15474 0.579727 2.2559C0.582797 2.41626 0.525907 2.55374 0.405817 2.67616C0.337589 2.74528 0.265806 2.81068 0.19077 2.8721C-0.0144536 3.04144 -0.0529237 3.23055 0.0696852 3.46722L0.0889944 3.50454C0.191934 3.70314 0.298389 3.90845 0.392457 4.11255C0.41517 4.16743 0.433515 4.22407 0.447315 4.28192C0.458388 4.32274 0.469821 4.36508 0.483964 4.40867C0.492433 4.43445 0.500246 4.46262 0.508588 4.49233C0.534397 4.58416 0.563636 4.68823 0.624422 4.78575C0.714072 4.92556 0.821097 5.05308 0.942853 5.16514C1.14736 5.35758 1.36247 5.54112 1.57049 5.71839L1.57984 5.72636L1.58186 5.72817C1.58441 5.74222 1.58562 5.75649 1.58545 5.77077L1.59079 6.03333C1.6047 6.72239 1.6191 7.4349 1.64664 8.13626C1.6585 8.39475 1.69846 8.65112 1.7658 8.9007C1.82489 9.12489 1.91204 9.33716 1.99633 9.54247C2.0081 9.57111 2.01981 9.59971 2.03147 9.62826C2.16257 9.94996 2.27523 10.2086 2.386 10.4421C2.50054 10.6835 2.70757 10.8567 2.98463 10.9428C3.0069 10.9498 3.03095 10.9586 3.0564 10.968C3.06811 10.9723 3.07969 10.9766 3.09153 10.9809L3.1264 10.9934L3.38932 11L3.42446 10.9895C3.69217 10.9093 3.88049 10.7206 3.9691 10.4438L3.97636 10.4213C4.00134 10.3504 4.01995 10.2773 4.03196 10.203C4.07447 9.89576 4.12266 9.54771 4.16092 9.20658C4.18114 9.02634 4.22857 8.90829 4.31948 8.81186C4.39443 8.72977 4.46485 8.64353 4.53042 8.55356C4.57937 8.4888 4.6257 8.42761 4.67452 8.37158C4.72686 8.31164 4.86198 8.15695 4.8613 7.9386C4.95088 7.88857 5.03612 7.84063 5.1221 7.78669C5.21873 7.72563 5.30009 7.64266 5.35979 7.54431C5.41948 7.44595 5.45587 7.33488 5.46611 7.21984C5.47684 7.09699 5.48246 6.96555 5.48383 6.8062C5.48476 6.6971 5.52332 6.65151 5.5852 6.61342C5.67201 6.55992 5.75823 6.50438 5.8416 6.45069C5.93595 6.38989 6.03351 6.32703 6.12974 6.2687C6.19457 6.2295 6.25019 6.17641 6.29272 6.11315C6.33524 6.04988 6.36366 5.97796 6.37597 5.90241L6.38806 5.82831C6.44969 5.44999 6.51344 5.0588 6.58873 4.67865C6.61232 4.5595 6.63582 4.44307 6.66351 4.32912C6.70541 4.2056 6.76275 4.08804 6.83412 3.97933C6.95682 3.79495 7.01425 3.57379 6.997 3.352Z" fill="#07191D"/>
</svg>
