<svg xmlns="http://www.w3.org/2000/svg" aria-hidden="true" style="position:absolute;width:0;height:0;overflow:hidden">
<defs>
  <symbol id="lang" viewBox="0 0 17 17">
  <path d="M8.5 0C3.825 0 0 3.825 0 8.5C0 13.175 3.825 17 8.5 17C13.175 17 17 13.175 17 8.5C17 3.825 13.175 0 8.5 0ZM1.00937 8.5C1.00937 7.75625 1.11562 7.0125 1.32812 6.26875H3.6125C3.50625 6.95938 3.45312 7.70312 3.45312 8.5C3.45312 9.24375 3.50625 9.9875 3.6125 10.7312H1.32812C1.16875 10.0406 1.00937 9.29688 1.00937 8.5ZM4.56875 8.5C4.56875 7.75625 4.62187 7.0125 4.72812 6.26875H7.91562V10.6781H4.72812C4.62187 10.0406 4.56875 9.29688 4.56875 8.5ZM9.03125 1.11562C10.3062 1.4875 11.4219 3.08125 12.0063 5.20625H9.03125V1.11562ZM7.96875 1.11562V5.20625H4.99375C5.57812 3.08125 6.64062 1.4875 7.96875 1.11562ZM7.96875 11.7937V15.8844C6.69375 15.5125 5.57812 13.9187 4.99375 11.7937H7.96875ZM9.03125 15.8844V11.7937H12.0063C11.4219 13.9719 10.3062 15.5656 9.03125 15.8844ZM9.03125 10.7312V6.32187H12.2188C12.325 7.0125 12.3781 7.75625 12.3781 8.55313C12.3781 9.29688 12.325 10.0406 12.2188 10.7844H9.03125V10.7312ZM13.2812 6.32187H15.5656C15.7781 7.0125 15.8844 7.75625 15.8844 8.55313C15.8844 9.35 15.7781 10.0406 15.5656 10.7844H13.2812C13.3875 10.0938 13.4406 9.35 13.4406 8.55313C13.4937 7.75625 13.3875 7.0125 13.2812 6.32187ZM15.1937 5.25937H13.1219C12.8031 3.825 12.2188 2.60313 11.5281 1.7C13.1219 2.39062 14.3969 3.66562 15.1937 5.25937ZM5.47187 1.7C4.78125 2.60313 4.19688 3.825 3.87813 5.25937H1.80625C2.55 3.66562 3.87812 2.39062 5.47187 1.7ZM1.80625 11.7937H3.87813C4.19688 13.2281 4.78125 14.45 5.47187 15.3531C3.87812 14.6094 2.55 13.3875 1.80625 11.7937ZM11.5281 15.3531C12.2188 14.45 12.8031 13.2281 13.1219 11.7937H15.1937C14.3969 13.3875 13.1219 14.6094 11.5281 15.3531Z" fill="#091F24"/>
  </symbol>
  <symbol id="login" viewBox="0 0 14 18">
  <path d="M4.9375 17.25H9.0625C10.3384 17.2486 11.5617 16.7412 12.4639 15.8389C13.3662 14.9367 13.8736 13.7134 13.875 12.4375V5.5625C13.8736 4.28656 13.3662 3.06328 12.4639 2.16106C11.5617 1.25883 10.3384 0.751365 9.0625 0.75H4.9375C3.66156 0.751365 2.43828 1.25883 1.53606 2.16106C0.633833 3.06328 0.126365 4.28656 0.125 5.5625C0.125 5.74484 0.197433 5.9197 0.326364 6.04864C0.455295 6.17757 0.630164 6.25 0.8125 6.25C0.994836 6.25 1.1697 6.17757 1.29864 6.04864C1.42757 5.9197 1.5 5.74484 1.5 5.5625C1.501 4.65113 1.86349 3.77737 2.50793 3.13293C3.15237 2.48849 4.02613 2.126 4.9375 2.125H9.0625C9.97387 2.126 10.8476 2.48849 11.4921 3.13293C12.1365 3.77737 12.499 4.65113 12.5 5.5625V12.4375C12.499 13.3489 12.1365 14.2226 11.4921 14.8671C10.8476 15.5115 9.97387 15.874 9.0625 15.875H4.9375C4.02613 15.874 3.15237 15.5115 2.50793 14.8671C1.86349 14.2226 1.501 13.3489 1.5 12.4375C1.5 12.2552 1.42757 12.0803 1.29864 11.9514C1.1697 11.8224 0.994836 11.75 0.8125 11.75C0.630164 11.75 0.455295 11.8224 0.326364 11.9514C0.197433 12.0803 0.125 12.2552 0.125 12.4375C0.126365 13.7134 0.633833 14.9367 1.53606 15.8389C2.43828 16.7412 3.66156 17.2486 4.9375 17.25Z" fill="white"/>
<path d="M0.125 9C0.125 9.18234 0.197433 9.3572 0.326364 9.48614C0.455295 9.61507 0.630164 9.6875 0.8125 9.6875H5.68413L4.79519 10.5764C4.72952 10.6399 4.67715 10.7157 4.64112 10.7996C4.60509 10.8835 4.58612 10.9737 4.58533 11.065C4.58453 11.1563 4.60193 11.2468 4.6365 11.3313C4.67107 11.4158 4.72212 11.4925 4.78667 11.5571C4.85122 11.6216 4.92798 11.6727 5.01247 11.7073C5.09696 11.7418 5.18749 11.7592 5.27878 11.7584C5.37006 11.7576 5.46028 11.7387 5.54415 11.7026C5.62803 11.6666 5.70389 11.6142 5.76731 11.5486L7.82981 9.48606C7.9587 9.35714 8.0311 9.1823 8.0311 9C8.0311 8.8177 7.9587 8.64286 7.82981 8.51394L5.76731 6.45144C5.63765 6.3262 5.46398 6.25691 5.28372 6.25847C5.10346 6.26004 4.93103 6.33234 4.80356 6.45981C4.67609 6.58728 4.60379 6.75971 4.60222 6.93997C4.60066 7.12023 4.66995 7.2939 4.79519 7.42356L5.68413 8.3125H0.8125C0.630164 8.3125 0.455295 8.38493 0.326364 8.51386C0.197433 8.64279 0.125 8.81766 0.125 9Z" fill="white"/>
  </symbol>
  <symbol id="search" viewBox="0 0 25 25">
  <path d="M22.7499 21.5428L17.8556 16.6485C17.5221 16.315 16.982 16.315 16.6485 16.6485C16.315 16.9817 16.315 17.5224 16.6485 17.8556L21.5428 22.7499C21.7095 22.9166 21.9278 23 22.1463 23C22.3646 23 22.5831 22.9166 22.7499 22.7499C23.0834 22.4167 23.0834 21.876 22.7499 21.5428Z" />
<path d="M11.248 2C6.14877 2 2 6.14877 2 11.248C2 16.3474 6.14877 20.4959 11.248 20.4959C16.3474 20.4959 20.4959 16.3474 20.4959 11.248C20.4959 6.14877 16.3474 2 11.248 2ZM11.248 18.7886C7.09008 18.7886 3.70732 15.4059 3.70732 11.248C3.70732 7.09012 7.09008 3.70732 11.248 3.70732C15.4058 3.70732 18.7886 7.09008 18.7886 11.248C18.7886 15.4058 15.4058 18.7886 11.248 18.7886Z" />
  </symbol>
  <symbol>
  </symbol>
  <symbol>
  </symbol>
</defs>
</svg>